#!OML:ASF X:\für Bonn\!DataBase\2005_08_12_Daniel\c3d\Daniel.ASF
:FULLY-SPECIFIED
:DEGREES
93
root 0.627781 15.1759 -15.9932 354.467 16.8898 -1.63092
lowerback 58.2197 0.208842 4.3069
upperback 13.2744 2.74209 -3.43536
thorax -6.14898 1.8946 -6.88762
lowerneck 4.39675 -2.4116 -5.29349
upperneck 15.0209 -3.33702 2.65365
head 4.35404 -1.73878 1.7546
rclavicle -2.92213e-014 1.03368e-014
rhumerus 24.1679 -16.1346 -96.1441
rradius 9.74056
rwrist 34.6452
rhand -21.5652 15.533
rfingers 7.12502
rthumb 4.82862 -14.392
lclavicle -2.92213e-014 1.03368e-014
lhumerus -15.6445 -3.21904 86.332
lradius 75.9491
lwrist 0.849892
lhand -12.7368 -8.4826
lfingers 7.12502
lthumb 13.3469 21.0699
rfemur -40.2713 -30.2727 21.2216
rtibia 75.2284
rfoot -29.2721 -357.374
rtoes -6.74624
lfemur -45.3334 4.31704 -19.3853
ltibia 78.3758
lfoot -25.8313 -15.8419
ltoes -4.03231
94
root 0.612667 15.0657 -15.9884 354.488 16.9477 -1.59278
lowerback 58.9414 0.0992493 4.46948
upperback 13.1999 2.74275 -3.44675
thorax -6.25437 1.90369 -6.97855
lowerneck 4.41251 -2.5022 -5.35715
upperneck 14.9694 -3.45569 2.66013
head 4.34031 -1.79826 1.76519
rclavicle -2.10712e-014 -7.93151e-014
rhumerus 25.0707 -16.6066 -96.2961
rradius 9.41742
rwrist 35.5291
rhand -21.9192 15.3336
rfingers 7.12502
rthumb 4.48675 -14.5989
lclavicle -2.10712e-014 -7.93151e-014
lhumerus -15.6724 -3.127 86.3535
lradius 75.4014
lwrist 0.748171
lhand -12.7314 -8.31028
lfingers 7.12502
lthumb 13.3521 21.2419
rfemur -41.3196 -30.9474 21.2349
rtibia 76.7931
rfoot -29.4677 -356.759
rtoes -6.5347
lfemur -46.2277 4.42805 -19.3775
ltibia 79.7077
lfoot -26.2403 -16.076
ltoes -3.83688
95
root 0.598446 14.955 -15.9827 354.485 16.9948 -1.55643
lowerback 59.6841 -0.0100362 4.61406
upperback 13.1196 2.73822 -3.4521
thorax -6.36332 1.90908 -7.05198
lowerneck 4.32212 -2.60021 -5.39824
upperneck 14.9714 -3.57174 2.59853
head 4.36376 -1.85759 1.74762
rclavicle -4.41302e-014 4.17448e-014
rhumerus 25.9523 -17.0362 -96.4546
rradius 9.13138
rwrist 36.3905
rhand -22.2975 15.0735
rfingers 7.12502
rthumb 4.12148 -14.8663
lclavicle -4.41302e-014 4.17448e-014
lhumerus -15.7001 -2.99786 86.3701
lradius 74.8474
lwrist 0.644814
lhand -12.6296 -8.20053
lfingers 7.12502
lthumb 13.4502 21.3452
rfemur -42.3496 -31.6105 21.2433
rtibia 78.3684
rfoot -29.6257 -356.214
rtoes -6.4794
lfemur -47.0966 4.54761 -19.367
ltibia 81.0469
lfoot -26.6328 -16.3342
ltoes -3.6769
96
root 0.584062 14.8407 -15.9751 354.425 17.0395 -1.48152
lowerback 60.4276 -0.10147 4.72787
upperback 13.0705 2.74161 -3.45413
thorax -6.43213 1.92066 -7.10936
lowerneck 4.29586 -2.69125 -5.44739
upperneck 14.9362 -3.68655 2.58187
head 4.36279 -1.91519 1.74736
rclavicle 1.63003e-014 1.88845e-014
rhumerus 26.8193 -17.4863 -96.5943
rradius 8.86456
rwrist 37.2636
rhand -22.7113 14.8363
rfingers 7.12502
rthumb 3.72186 -15.111
lclavicle 1.63003e-014 1.88845e-014
lhumerus -15.7075 -2.90604 86.382
lradius 74.2711
lwrist 0.517836
lhand -12.5411 -8.18988
lfingers 7.12502
lthumb 13.5355 21.3502
rfemur -43.2853 -32.2788 21.1501
rtibia 79.9585
rfoot -29.7598 -355.623
rtoes -6.26048
lfemur -47.8702 4.72232 -19.4055
ltibia 82.3816
lfoot -27.0646 -16.5532
ltoes -3.51971
97
root 0.570054 14.7268 -15.9671 354.306 17.1098 -1.43296
lowerback 61.2065 -0.237634 4.88318
upperback 13.0101 2.72376 -3.46465
thorax -6.50922 1.92441 -7.18512
lowerneck 4.24528 -2.78051 -5.53667
upperneck 14.9239 -3.79912 2.57648
head 4.37664 -1.9734 1.75807
rclavicle -5.04913e-014 3.3197e-014
rhumerus 27.7032 -17.9005 -96.8046
rradius 8.55382
rwrist 38.1457
rhand -23.2114 14.5081
rfingers 7.12502
rthumb 3.23895 -15.4471
lclavicle -5.04913e-014 3.3197e-014
lhumerus -15.7303 -2.80478 86.3835
lradius 73.6871
lwrist 0.360861
lhand -12.439 -8.27428
lfingers 7.12502
lthumb 13.634 21.2592
rfemur -44.1533 -32.9546 21.0379
rtibia 81.5506
rfoot -29.8426 -355.023
rtoes -6.04849
lfemur -48.6025 4.89556 -19.4106
ltibia 83.7133
lfoot -27.4364 -16.7999
ltoes -3.29373
98
root 0.556505 14.6086 -15.9583 354.158 17.174 -1.36449
lowerback 61.991 -0.36669 5.02768
upperback 12.9575 2.71003 -3.49033
thorax -6.57147 1.93266 -7.27381
lowerneck 4.15378 -2.87339 -5.55402
upperneck 14.9555 -3.91476 2.57484
head 4.41235 -2.0292 1.75667
rclavicle -8.74653e-015 9.00495e-014
rhumerus 28.5354 -18.3476 -97.0091
rradius 8.30691
rwrist 38.9346
rhand -23.6608 14.279
rfingers 7.12502
rthumb 2.8049 -15.6823
lclavicle -8.74653e-015 9.00495e-014
lhumerus -15.7331 -2.72968 86.3656
lradius 73.0669
lwrist 0.226343
lhand -12.3412 -8.46885
lfingers 7.12502
lthumb 13.7282 21.0583
rfemur -44.9819 -33.65 20.8618
rtibia 83.1649
rfoot -29.902 -354.362
rtoes -5.8249
lfemur -49.3039 5.09064 -19.4346
ltibia 85.0563
lfoot -27.829 -17.0787
ltoes -2.96253
99
root 0.543199 14.4904 -15.9482 353.988 17.2507 -1.30034
lowerback 62.779 -0.484778 5.1272
upperback 12.9047 2.69296 -3.4634
thorax -6.63148 1.93379 -7.28103
lowerneck 3.99745 -2.95583 -5.6897
upperneck 15.0088 -4.01381 2.57374
head 4.47212 -2.08314 1.77647
rclavicle -1.98785e-015 2.38542e-015
rhumerus 29.3407 -18.7167 -97.1496
rradius 8.08572
rwrist 39.7277
rhand -24.0806 14.0059
rfingers 7.12502
rthumb 2.39956 -15.9603
lclavicle -1.98785e-015 2.38542e-015
lhumerus -15.7335 -2.58734 86.4058
lradius 72.4397
lwrist 0.0388016
lhand -12.2864 -8.67183
lfingers 7.12502
lthumb 13.781 20.8517
rfemur -45.803 -34.3914 20.6688
rtibia 84.8
rfoot -29.873 -353.716
rtoes -5.55674
lfemur -49.9914 5.30415 -19.4634
ltibia 86.4032
lfoot -28.2042 -17.323
ltoes -2.8148
100
root 0.530264 14.3691 -15.9379 353.81 17.3272 -1.21579
lowerback 63.5658 -0.614733 5.23969
upperback 12.854 2.66874 -3.47475
thorax -6.68295 1.93648 -7.33336
lowerneck 3.80028 -3.0468 -5.74782
upperneck 15.0807 -4.12001 2.55567
head 4.54394 -2.13705 1.77561
rclavicle 1.59028e-014 9.74045e-015
rhumerus 30.1652 -19.1187 -97.363
rradius 7.84398
rwrist 40.4126
rhand -24.5354 13.746
rfingers 7.12502
rthumb 1.96026 -16.2247
lclavicle 1.59028e-014 9.74045e-015
lhumerus -15.7185 -2.46843 86.4019
lradius 71.8265
lwrist -0.152608
lhand -12.135 -8.88727
lfingers 7.12502
lthumb 13.9269 20.6263
rfemur -46.6259 -35.1606 20.4268
rtibia 86.465
rfoot -29.7429 -353.026
rtoes -5.13927
lfemur -50.667 5.54156 -19.5079
ltibia 87.7509
lfoot -28.5658 -17.5895
ltoes -2.54229
101
root 0.518421 14.2471 -15.9266 353.615 17.4044 -1.15117
lowerback 64.3482 -0.75182 5.38726
upperback 12.7945 2.66227 -3.47992
thorax -6.7349 1.94743 -7.40067
lowerneck 3.61474 -3.15157 -5.7924
upperneck 15.1568 -4.24558 2.54683
head 4.61625 -2.19921 1.77476
rclavicle 3.81667e-014 -1.55052e-014
rhumerus 30.8913 -19.5756 -97.5264
rradius 7.67685
rwrist 41.0477
rhand -25.0274 13.5575
rfingers 7.12502
rthumb 1.48507 -16.4171
lclavicle 3.81667e-014 -1.55052e-014
lhumerus -15.6994 -2.42894 86.4234
lradius 71.1872
lwrist -0.33971
lhand -12.0935 -9.08631
lfingers 7.12502
lthumb 13.9669 20.4245
rfemur -47.4282 -35.9355 20.1821
rtibia 88.1457
rfoot -29.5134 -352.336
rtoes -4.8245
lfemur -51.3432 5.7897 -19.5381
ltibia 89.119
lfoot -28.9625 -17.8357
ltoes -2.37751
102
root 0.507555 14.1216 -15.9147 353.421 17.4718 -1.08564
lowerback 65.0875 -0.888729 5.51164
upperback 12.7471 2.64235 -3.48474
thorax -6.77116 1.95222 -7.45061
lowerneck 3.34792 -3.24092 -5.87552
upperneck 15.6687 -4.3745 2.67573
head 4.34139 -2.24754 1.67674
rclavicle 5.725e-014 -4.8901e-014
rhumerus 31.6284 -19.9676 -97.7256
rradius 7.48756
rwrist 41.6294
rhand -25.5422 13.3809
rfingers 7.12502
rthumb 0.987945 -16.5966
lclavicle 5.725e-014 -4.8901e-014
lhumerus -15.7213 -2.33841 86.4235
lradius 70.6054
lwrist -0.507318
lhand -12.0187 -9.29318
lfingers 7.12502
lthumb 14.039 20.2127
rfemur -48.2565 -36.7404 19.9279
rtibia 89.8543
rfoot -29.2143 -351.62
rtoes -4.42169
lfemur -52.0315 6.07705 -19.5639
ltibia 90.497
lfoot -29.3335 -18.1276
ltoes -2.18091
103
root 0.496235 13.9951 -15.9013 353.203 17.5393 -0.982737
lowerback 65.8335 -0.989616 5.58468
upperback 12.6946 2.63481 -3.47949
thorax -6.80966 1.96073 -7.4722
lowerneck 3.28239 -3.33662 -5.90576
upperneck 15.676 -4.49365 2.66273
head 4.36044 -2.30609 1.67258
rclavicle -5.725e-014 3.1408e-014
rhumerus 32.2989 -20.3791 -97.903
rradius 7.32081
rwrist 42.1231
rhand -26.094 13.2609
rfingers 7.12502
rthumb 0.455003 -16.7184
lclavicle -5.725e-014 3.1408e-014
lhumerus -15.7299 -2.26276 86.4245
lradius 69.9827
lwrist -0.70175
lhand -11.9632 -9.45139
lfingers 7.12502
lthumb 14.0924 20.0508
rfemur -49.0495 -37.5542 19.5947
rtibia 91.5831
rfoot -28.9965 -350.949
rtoes -4.20739
lfemur -52.6715 6.37797 -19.6287
ltibia 91.8792
lfoot -29.7051 -18.3868
ltoes -1.96734
104
root 0.485262 13.8666 -15.8879 352.991 17.6108 -0.899173
lowerback 66.5021 -1.07381 5.63296
upperback 12.665 2.63115 -3.44594
thorax -6.82094 1.96857 -7.45114
lowerneck 3.15036 -3.41937 -5.93295
upperneck 15.7437 -4.59314 2.65281
head 4.40801 -2.35478 1.66798
rclavicle -2.94201e-014 3.81667e-014
rhumerus 32.9313 -20.7482 -98.058
rradius 7.17486
rwrist 42.6215
rhand -26.6419 13.1774
rfingers 7.12502
rthumb -0.0742227 -16.8023
lclavicle -2.94201e-014 3.81667e-014
lhumerus -15.7569 -2.14162 86.4622
lradius 69.3814
lwrist -0.862022
lhand -11.9213 -9.57925
lfingers 7.12502
lthumb 14.1329 19.9201
rfemur -49.8586 -38.4007 19.2907
rtibia 93.3141
rfoot -28.818 -350.297
rtoes -4.05284
lfemur -53.3586 6.69471 -19.6693
ltibia 93.2807
lfoot -30.0676 -18.6823
ltoes -1.80052
105
root 0.474888 13.7361 -15.8744 352.748 17.6674 -0.836948
lowerback 67.1669 -1.16201 5.7079
upperback 12.6403 2.64081 -3.41797
thorax -6.81943 1.98441 -7.45252
lowerneck 3.03327 -3.51406 -5.87688
upperneck 15.7974 -4.70033 2.56659
head 4.44555 -2.40608 1.62612
rclavicle 0 -2.3059e-014
rhumerus 33.5199 -21.1524 -98.2023
rradius 7.05428
rwrist 43.0326
rhand -27.2605 13.1743
rfingers 7.12502
rthumb -0.671696 -16.8044
lclavicle 0 -2.3059e-014
lhumerus -15.7734 -2.05634 86.5031
lradius 68.7733
lwrist -1.05614
lhand -11.9175 -9.69198
lfingers 7.12502
lthumb 14.1365 19.8071
rfemur -50.6344 -39.2545 18.9708
rtibia 95.0475
rfoot -28.634 -349.634
rtoes -3.9355
lfemur -54.0285 7.05589 -19.6804
ltibia 94.6937
lfoot -30.4082 -18.9842
ltoes -1.50874
106
root 0.465445 13.6043 -15.8598 352.501 17.735 -0.754665
lowerback 67.8022 -1.25698 5.76772
upperback 12.6352 2.63382 -3.3948
thorax -6.79554 1.99484 -7.44471
lowerneck 2.85238 -3.60142 -5.84179
upperneck 15.8597 -4.79831 2.50434
head 4.49667 -2.45294 1.59397
rclavicle -8.74653e-015 4.09496e-014
rhumerus 34.1023 -21.5169 -98.394
rradius 6.95802
rwrist 43.4895
rhand -27.859 13.0841
rfingers 7.12502
rthumb -1.24976 -16.892
lclavicle -8.74653e-015 4.09496e-014
lhumerus -15.8045 -1.95856 86.543
lradius 68.2259
lwrist -1.20572
lhand -11.8443 -9.70178
lfingers 7.12502
lthumb 14.207 19.7924
rfemur -51.3994 -40.1302 18.5962
rtibia 96.7842
rfoot -28.4483 -348.962
rtoes -3.89619
lfemur -54.6903 7.40271 -19.7157
ltibia 96.1148
lfoot -30.7452 -19.2871
ltoes -1.25487
107
root 0.456286 13.4704 -15.8441 352.234 17.7953 -0.691175
lowerback 68.4412 -1.35232 5.8287
upperback 12.6028 2.62732 -3.37502
thorax -6.79934 2.00312 -7.44216
lowerneck 2.71239 -3.6809 -5.78856
upperneck 15.9186 -4.88859 2.44494
head 4.5392 -2.49521 1.56066
rclavicle 1.35174e-014 -2.50469e-014
rhumerus 34.6009 -21.8696 -98.5975
rradius 6.90028
rwrist 43.9529
rhand -28.4378 13.0687
rfingers 7.12502
rthumb -1.80876 -16.9033
lclavicle 1.35174e-014 -2.50469e-014
lhumerus -15.857 -1.8537 86.5625
lradius 67.6433
lwrist -1.39378
lhand -11.8233 -9.68233
lfingers 7.12502
lthumb 14.2273 19.8104
rfemur -52.1163 -41.0397 18.2178
rtibia 98.5046
rfoot -28.2984 -348.316
rtoes -3.8633
lfemur -55.3578 7.79183 -19.7243
ltibia 97.556
lfoot -31.1234 -19.5828
ltoes -1.2708
